<?xml version="1.0" standalone="no"?>
<!DOCTYPE svg PUBLIC "-//W3C//DTD SVG 20010904//EN"
 "http://www.w3.org/TR/2001/REC-SVG-20010904/DTD/svg10.dtd">
<svg version="1.0" xmlns="http://www.w3.org/2000/svg"
 width="150.000000pt" height="150.000000pt" viewBox="0 0 150.000000 150.000000"
 preserveAspectRatio="xMidYMid meet">
<metadata>
Created by potrace 1.11, written by Peter Selinger 2001-2013
</metadata>
<g transform="translate(0.000000,150.000000) scale(0.100000,-0.100000)"
fill="#000000" stroke="none">
<path d="M429 1339 c-8 -5 -23 -68 -35 -149 -3 -19 -9 -57 -14 -85 -6 -27 -12
-66 -14 -85 -6 -50 -16 -112 -21 -135 -5 -26 -18 -117 -18 -132 0 -7 -3 -13
-7 -13 -4 0 -5 -12 -2 -26 3 -19 1 -25 -6 -20 -7 4 -10 2 -7 -6 5 -12 -2 -71
-22 -188 -3 -19 -5 -43 -5 -53 1 -9 -3 -17 -7 -17 -4 0 -5 -16 -3 -35 2 -19 0
-35 -6 -35 -5 0 -7 -12 -4 -26 3 -17 1 -25 -5 -21 -6 4 -8 -3 -6 -16 2 -12 0
-40 -5 -63 l-9 -41 161 -2 c88 -1 167 3 174 7 7 5 15 20 16 33 8 57 38 248 53
324 3 17 6 35 6 41 0 12 26 12 46 -1 9 -5 12 -4 8 2 -7 11 61 12 79 1 6 -4 14
-5 18 -1 3 3 70 8 148 10 79 2 146 7 150 11 3 4 9 25 12 47 4 23 9 52 11 65 9
46 18 115 19 140 l1 25 -223 0 -224 0 6 26 c3 14 8 49 12 77 l6 51 142 1 c296
2 385 5 394 15 5 6 15 51 21 100 7 50 16 104 21 121 15 60 30 58 -430 59 -232
0 -426 -2 -431 -6z"/>
<path d="M310 1186 c0 -2 7 -7 16 -10 8 -3 12 -2 9 4 -6 10 -25 14 -25 6z"/>
</g>
</svg>
