<svg id="Layer_1" data-name="Layer 1" xmlns="http://www.w3.org/2000/svg" viewBox="0 0 715.88 123.41"><defs><style>.cls-1{fill:#3369ae;}.cls-2{fill:#07428d;}.cls-3{fill:#aeb0b3;}.fltgrey{fill:#dbdbdb;}.cls-5{fill:#fcfcfd;}</style></defs><title>FONET-logo</title><path class="cls-1" d="M165.66,436.93c-19.71-22-16.27-61,11-82,19.74-15.16,42.13-19.61,66.1-13.46,29.19,7.48,43.66,36,33.66,66.27-8.38,25.37-27.39,39.31-52.87,44-19.89,3.68-39.26,1.8-55.51-12.4ZM221,364.86c-18.76-.06-33.63,12.21-36.61,30.18-2.51,15.13,4.62,27.62,17.93,31.43,19.65,5.62,40.9-7,45.31-26.9S240.8,364.91,221,364.86Z" transform="translate(-47.31 -338.81)"/><path class="cls-2" d="M484.71,364.8a28.44,28.44,0,0,1-5.17.95c-16.14.08-32.28.05-48.8.05-.95,5.79-1.85,11.31-2.85,17.38h46.55c-1.31,8.42-2.53,16.28-3.84,24.72H424.12c-1.06,6.35-2,12.19-3.1,18.63h54.92c-1.37,8.75-2.65,16.86-3.94,25.12H387.09c2.42-15.49,4.78-30.74,7.19-46,3.22-20.37,6.53-40.74,9.64-61.13.43-2.81,1.21-4,4.27-3.95,26,.12,52,.07,77.94.09a14.66,14.66,0,0,1,2,.35c-1,7.37-2.08,14.68-3.12,22Z" transform="translate(-47.31 -338.81)"/><path class="cls-3" d="M685.76,451.6h-29.7c2-13.14,4-25.91,6-38.67,3.6-22.8,7.34-45.58,10.79-68.4.47-3.14,1.71-3.73,4.47-3.71,17,.11,34-.17,51,.21,18.65.43,32.24,12,34.53,28.55,2.17,15.81-6.05,31.38-20.24,39.3-10.68,6-22.3,7.38-34.14,7.92-5.48.25-11,.05-17,.05-1,5.85-2,11.51-2.92,17.19S686.73,445.51,685.76,451.6Zm9.55-59.9c7.21,0,14,.47,20.77-.19,3.79-.37,7.66-2.19,11-4.13,4.42-2.54,6-7.09,5.41-12-.68-5.5-4.44-8.7-9.69-9.27a201.22,201.22,0,0,0-20.4-.87,4.34,4.34,0,0,0-3.26,2.62C697.71,375.65,696.59,383.5,695.31,391.7Z" transform="translate(-47.31 -338.81)"/><path class="cls-1" d="M145,410.26c-13.73,0-27,.14-40.32-.09-3.93-.07-5.39.95-5.92,5.06-1.6,12.16-3.78,24.25-5.74,36.44H63.13c1.45-9.36,2.84-18.48,4.28-27.6,4.19-26.46,8.43-52.91,12.52-79.38.42-2.73,1-4.09,4.2-4.07,25.81.12,51.63.07,77.45.09a26.07,26.07,0,0,1,3,.37c-1.26,8.21-2.49,16.19-3.8,24.72H148.21c-12.49,0-25,.09-37.48-.06-3.11,0-4.46.83-4.76,4.06-.47,4.94-1.41,9.83-2.23,15.28H149C147.66,393.75,146.37,401.83,145,410.26Z" transform="translate(-47.31 -338.81)"/><path class="cls-2" d="M593.89,341c-1.36,8.44-2.65,16.47-4,24.83h-35c-4.58,28.81-9.12,57.33-13.65,85.86H510.77c4.51-28.59,9-56.92,13.54-85.79h-35c1.34-8.55,2.6-16.56,3.91-24.9Z" transform="translate(-47.31 -338.81)"/><path class="cls-2" d="M306.1,341.42l1.82-.06c4.65,9.76,9.18,19.58,14,29.26Q340.4,408,359.11,445.3c.69,1.4,1.51,2.73,2.92,5.26.64-4.07,1.06-6.82,1.49-9.56q3.74-23.81,7.46-47.6,4.06-26,8.11-52h14.62c-5.82,36.86-11.6,73.5-17.47,110.69-9.78,0-19.38.13-29-.18-1.14,0-2.53-2.3-3.27-3.79-9.61-19.34-19.11-38.72-28.65-58.09-.34-.69-.69-1.36-1.64-3.22-3.38,22.34-6.57,43.45-9.84,65.1H289c2-12,4-24,6-36.09,2.29-14.16,4.59-28.32,6.71-42.51C303.33,362.7,304.66,352.05,306.1,341.42Z" transform="translate(-47.31 -338.81)"/><path class="cls-3" d="M614.08,451.92c3.86-24.5,7.58-48.08,11.3-71.66,1.87-11.8,3.65-23.62,5.73-35.38.26-1.48,2-3.79,3.2-3.83,9-.32,17.93-.17,27.75-.17-1.23,7.76-2.4,15-3.54,22.28q-6.28,40.08-12.56,80.17c-.05.32,0,.66-.09,1-1.13,7.6-1.13,7.6-8.82,7.6Z" transform="translate(-47.31 -338.81)"/><path class="cls-1" d="M379.09,341.39q-4.05,26-8.11,52-3.72,23.81-7.46,47.6c-.43,2.74-.85,5.49-1.49,9.56-1.41-2.53-2.23-3.86-2.92-5.26Q340.48,408,321.89,370.62c-4.79-9.68-9.32-19.5-14-29.26,15.34-1.05,15.33-1.05,21.92,12.4Q341.66,377.9,353.52,402c.56,1.15,1.21,2.25,2.33,4.33,2.48-16.44,4.81-31.81,7.12-47.18.75-4.93,1.26-9.9,2.31-14.76a4.87,4.87,0,0,1,3.36-3A88.85,88.85,0,0,1,379.09,341.39Z" transform="translate(-47.31 -338.81)"/><path class="fltgrey" d="M484.71,364.8,485,363c1-2.73,2.08-5.42,3-8.18.42-1.31.45-2.74,1.73-3.95-.57,3.93-1.17,7.87-1.71,11.81s1,5.43,5,5.35c9.45-.2,18.9-.06,28.9-.06-2.21,13.82-4.32,27-6.42,40.19q-3.21,20.08-6.41,40.17c-.62,3.93.74,6,5.12,5.69,3.77-.27,7.56-.06,11.42-.06.51,4.75-.33,7.26-5.37,7.08-8.25-.29-16.53-.08-25.4-.08,4.55-29,9-57.08,13.53-85.93h-35c.38-2.54.67-4.45,1.06-7.09,2.8,0,5.59.17,8.34-.06C484.38,367.77,487,367.66,484.71,364.8Z" transform="translate(-47.31 -338.81)"/><path class="fltgrey" d="M77,350c-2.18,14-4.22,27.2-6.3,40.4C67.83,408.71,64.8,427,62,445.28,60.74,454,61,454,70,454h7.56c.37,5.13-.94,7.42-6.25,7.11-7.78-.45-15.59-.11-24-.11,1.35-9.05,2.56-17.64,3.91-26.21,2.89-18.29,5.87-36.55,8.76-54.83,1.42-9,2.64-18,4.17-26.95a4.2,4.2,0,0,1,2.68-2.84A94.59,94.59,0,0,1,77,350Z" transform="translate(-47.31 -338.81)"/><path class="cls-1" d="M306.1,341.42c-1.44,10.63-2.77,21.28-4.36,31.88-2.12,14.19-4.42,28.35-6.71,42.51-1.95,12-4,24.06-6,36.09H275.86c5.8-36.73,11.58-73.41,17.43-110.48Z" transform="translate(-47.31 -338.81)"/><path class="fltgrey" d="M165.66,436.93l2.42,2.46c1.08,1.74,1.76,4.05,3.3,5.1C180.89,451,191.3,455,203,455a216.78,216.78,0,0,1,22.57.8c-7.5,2.05-14.9,5.24-22.52,5.9-14.26,1.23-28.55.8-41.58-6.86-14.05-8.26-21.91-20.3-23.51-36.48-.18-1.79-.46-3.57-.7-5.35.32-.28.54-.65.81-.69,8.43-1.12,8.56-1.09,10.28-10.07,1.17-6.1,1.9-12.29,2.87-18.71l-5.49-.81c1.84-7.69,9.78-15.16,15.12-13.92-6.52,10.95-10.16,22.75-9.73,35.43.34,10.41,2.87,20.4,9.14,29C161.47,434.89,163.83,435.72,165.66,436.93Z" transform="translate(-47.31 -338.81)"/><path class="fltgrey" d="M628.41,454c.93,6.49.59,7-4.81,7-8.29,0-16.58,0-25.38,0,2.34-15.21,4.55-29.87,6.94-44.49.22-1.3,1.49-2.53,2.48-3.58,6.82-7.18,8-14.77,4-23.78a13.84,13.84,0,0,1-.82-7c1.2-9.17,3-18.27,4-27.47.41-3.73,1.72-5,5.24-4.73,2.44.18,4.9,0,7.83,0-1.8,11.91-3.44,23.14-5.2,34.35q-4.31,27.44-8.74,54.83c-.52,3.26-1.16,6.51-1.78,9.75s.29,5.19,4,5.1C620.19,453.9,624.17,454,628.41,454Z" transform="translate(-47.31 -338.81)"/><path class="fltgrey" d="M371.34,460.52c.38-2.14.72-4,1.11-6.26,5.49.68,6-2.77,6.66-6.95,3.06-20.11,6.49-40.17,9.67-60.27,1.91-12.09,3.6-24.21,5.44-36.67h6.64c-2.08,13.57-4.06,26.79-6.14,40-2.87,18.3-5.91,36.58-8.68,54.9C384.73,454,385,454,394,454h62.6c.17,3.77.77,7-4.19,7q-39.24,0-78.48,0A16,16,0,0,1,371.34,460.52Z" transform="translate(-47.31 -338.81)"/><path class="fltgrey" d="M316,396l10.92,22.22c5.36,10.9,10.6,21.86,16.21,32.64.78,1.51,3.26,2.77,5.09,3,3.92.45,7.93.13,11.79.13,1.48,5.68.68,7-4.24,7-7.33.06-14.67.22-22-.14a7.35,7.35,0,0,1-5.31-3.15c-5.71-11.1-11.07-22.37-16.45-33.63a8.31,8.31,0,0,1-1-4.28c1-7.8,2.16-15.58,3.27-23.37Z" transform="translate(-47.31 -338.81)"/><path class="cls-3" d="M593.57,380.05c9.76.06,18.55,9,18.32,18.69-.24,9.85-9,18.24-18.88,18.15-9.41-.09-18-9-18-18.54A18.6,18.6,0,0,1,593.57,380.05Z" transform="translate(-47.31 -338.81)"/><path class="fltgrey" d="M288.7,454c-.43,2.55-.75,4.47-1.12,6.68H260.19c1.34-9.37,2.6-18.48,4-27.55.16-1,1.23-1.92,2-2.81,16.07-19.45,18.9-40.86,10.54-64.48-1.49-4.2.33-9.61.85-14.44.05-.54,1.54-1.27,2.4-1.31,3.12-.16,6.26-.07,9.82-.07-2.07,13.49-4,26.38-6,39.27-2.88,18.3-5.95,36.58-8.69,54.91-1.46,9.74-1.22,9.77,8.48,9.8Z" transform="translate(-47.31 -338.81)"/><path class="fltgrey" d="M639.28,459c1.79-1.8,4-3.37,5.27-5.47a22,22,0,0,0,3.24-7.93q7.28-45.6,14.18-91.25c.82-5.38,4-4.63,7.86-3.79-2.43,15.56-4.8,30.9-7.23,46.22q-4.22,26.49-8.53,52.94c-.52,3.23.67,4.56,4.06,4.37,4-.24,8-.06,12.48-.06-.36,2.46-.65,4.47-1,6.71h-29Z" transform="translate(-47.31 -338.81)"/><path class="fltgrey" d="M591,418.61c-4.83,6.48-11.86,8.67-18.61,6.37A19.22,19.22,0,0,1,559,407c0-7.85,5.74-14.5,16.08-17.89-2.73,6.66-3,12.94.43,18.86C578.83,413.7,583.58,417.61,591,418.61Z" transform="translate(-47.31 -338.81)"/><path class="fltgrey" d="M354.68,399.41c-3.33-6.69-6.57-12-8.57-17.71-1.05-3-.14-6.79.27-10.17.72-5.9,1.91-11.75,2.57-17.65.3-2.7,1.3-3.95,4-3.86,2,.07,4.12-.39,6,.16,1.21.37,3,2.24,2.86,3.2C359.65,368.26,357.25,383.11,354.68,399.41Z" transform="translate(-47.31 -338.81)"/><path class="fltgrey" d="M144.42,368c1,6.9,1,7-5,7-9.14,0-18.28,0-27.42,0-2.46,0-4.14-.25-4.08-3.42,0-2.9,1.23-3.67,3.92-3.64C122.62,368,133.39,368,144.42,368Z" transform="translate(-47.31 -338.81)"/><path class="fltgrey" d="M468.4,368c1.45,5.27,0,7.19-4.91,7.06-9.15-.24-18.3-.11-27.46-.05-2.43,0-4.17-.19-4.12-3.39,0-2.89,1.21-3.69,3.92-3.66C446.61,368,457.4,368,468.4,368Z" transform="translate(-47.31 -338.81)"/><path class="fltgrey" d="M425.78,417c-1.26-6.26-.81-6.95,4.43-7,8-.05,15.92,0,23.76,0,2,6.31,1.56,7-4.5,7Z" transform="translate(-47.31 -338.81)"/><path class="fltgrey" d="M129.48,412c1,5-.21,7.23-5.12,7-6.62-.25-13.25-.13-19.88,0-2.51,0-3.61-.79-3.54-3.43.06-2.4.67-3.67,3.38-3.63C112.58,412.11,120.84,412,129.48,412Z" transform="translate(-47.31 -338.81)"/><path class="fltgrey" d="M726.69,417c-6.65,6.24-23.55,8.46-33.78,8.61-1.18-5-.2-6.59,4.32-6.64,5-.06,10,.22,14.93-.09C716.85,418.59,721.49,417.71,726.69,417Z" transform="translate(-47.31 -338.81)"/><path class="fltgrey" d="M574.32,368c.79,6.36-2.16,7.59-6.94,7a47.5,47.5,0,0,0-7.45,0c-2.52.12-4-.38-4-3.47.05-2.94,1.33-3.65,4-3.58C564.66,368.08,569.44,368,574.32,368Z" transform="translate(-47.31 -338.81)"/><path class="cls-5" d="M221,364.86c19.78.05,31,14.74,26.63,34.71s-25.66,32.52-45.31,26.9C189,422.66,181.9,410.17,184.41,395,187.39,377.07,202.26,364.8,221,364.86Zm-21.3,9.24c13.52-.81,24.64,1.33,30.28,14,5.17,11.64,2.42,22.75-4,33.84,16.37-5.1,24.3-26.49,18.19-41.2a22,22,0,0,0-6.76-8.9C227.3,364.35,211.27,365.19,199.72,374.1Z" transform="translate(-47.31 -338.81)"/><path class="cls-5" d="M695.31,391.7c1.28-8.2,2.4-16.05,3.87-23.84a4.34,4.34,0,0,1,3.26-2.62,201.22,201.22,0,0,1,20.4.87c5.25.57,9,3.77,9.69,9.27.6,4.91-1,9.46-5.41,12-3.38,1.94-7.25,3.76-11,4.13C709.35,392.17,702.52,391.7,695.31,391.7Zm21.82-1.19c4.25-2.63,7.67-4.08,10.22-6.46,5.55-5.18,3.53-14.06-3.82-15.53-7.17-1.44-14.63-1.37-22-2-.51,3-.83,4.92-1.19,7.12C709.5,374.85,717.53,377.17,717.13,390.51Z" transform="translate(-47.31 -338.81)"/><path class="fltgrey" d="M199.72,374.1c11.55-8.91,27.58-9.75,37.74-2.22a22,22,0,0,1,6.76,8.9c6.11,14.71-1.82,36.1-18.19,41.2,6.39-11.09,9.14-22.2,4-33.84C224.36,375.43,213.24,373.29,199.72,374.1Z" transform="translate(-47.31 -338.81)"/><path class="fltgrey" d="M717.13,390.51c.4-13.34-7.63-15.66-16.77-16.83.36-2.2.68-4.1,1.19-7.12,7.35.59,14.81.52,22,2,7.35,1.47,9.37,10.35,3.82,15.53C724.8,386.43,721.38,387.88,717.13,390.51Z" transform="translate(-47.31 -338.81)"/></svg>